<?xml version="1.0" encoding="UTF-8"?>
<svg data-slug-id="azure-defender" viewBox="0 0 30 36" xmlns="http://www.w3.org/2000/svg">
<path d="m30 16.805c0 9.6827-11.914 17.477-14.507 19.057-0.148 0.0902-0.3187 0.138-0.4929 0.138s-0.3449-0.0478-0.4929-0.138c-2.5931-1.5804-14.507-9.3746-14.507-19.057v-11.639c4.6178e-4 -0.24155 0.096978-0.47336 0.26897-0.64602 0.17199-0.17266 0.40586-0.2725 0.65172-0.27824 9.2681-0.24006 7.1334-4.2412 14.079-4.2412 6.946 0 4.8112 4.0011 14.079 4.2412 0.2459 0.00574 0.4797 0.10558 0.6517 0.27824s0.2685 0.40447 0.269 0.64602v11.639z" fill="#50E6FF"/>
<path d="m28.758 16.912c0 8.8785-10.928 16.026-13.305 17.477-0.1355 0.0834-0.2922 0.1277-0.4522 0.1277-0.1599 0-0.3166-0.0443-0.4522-0.1277-2.3771-1.4504-13.305-8.6024-13.305-17.477v-10.683c1e-3 -0.22138 0.08988-0.43365 0.24774-0.59168 0.15786-0.15802 0.37225-0.24935 0.59759-0.25456 8.5001-0.22606 6.5426-3.8891 12.912-3.8891 6.3695 0 4.412 3.663 12.912 3.8891 0.2253 0.00521 0.4397 0.09654 0.5976 0.25456 0.1578 0.15803 0.2467 0.3703 0.2477 0.59168v10.683z" fill="url(#a)"/>
<path d="m16.739 18.641c1.4411 0 2.6093-1.1474 2.6093-2.5627 0-1.4154-1.1682-2.5628-2.6093-2.5628s-2.6093 1.1474-2.6093 2.5628c0 1.4153 1.1682 2.5627 2.6093 2.5627z" fill="#fff"/>
<path d="m12.991 24.054c0.9731 0 1.7619-0.7746 1.7619-1.73 0-0.9555-0.7888-1.73-1.7619-1.73s-1.762 0.7745-1.762 1.73c0 0.9554 0.7889 1.73 1.762 1.73z" fill="#fff"/>
<path d="m11.72 11.291c1.207 0 2.1856-0.961 2.1856-2.1466 0-1.1855-0.9786-2.1466-2.1856-2.1466-1.2071 0-2.1857 0.96107-2.1857 2.1466 0 1.1856 0.97858 2.1466 2.1857 2.1466z" fill="#fff"/>
<path d="m21.587 23.298-4.41-7.5841-0.4379 0.248 0.3585-0.26-4.9946-6.974-0.9126 0.65218 4.4243 6.1777-9.8038 0.7942 0.0937 1.1183 9.7101-0.7922-3.2204 5.2555 0.9675 0.5722 3.3121-5.4116 3.9333 6.7519 0.9798-0.5481z" fill="#E6E6E6"/>
<path d="m16.739 13.542c0.5237 0 1.0357 0.1525 1.4711 0.4383 0.4355 0.2857 0.7749 0.6919 0.9753 1.1671 0.2004 0.4753 0.2529 0.9982 0.1507 1.5027s-0.3544 0.9679-0.7247 1.3316-0.8422 0.6114-1.3558 0.7118c-0.5137 0.1003-1.0461 0.0488-1.53-0.148-0.4838-0.1969-0.8974-0.5302-1.1884-0.9579-0.2909-0.4277-0.4462-0.9305-0.4462-1.4449v-0.064c0.017-0.6786 0.3034-1.3238 0.7982-1.7978 0.4948-0.4739 1.1586-0.7391 1.8498-0.7389zm-7.1517-4.4012c-0.00443 0.42781 0.12056 0.84728 0.35912 1.2052 0.23859 0.358 0.57999 0.6383 0.98099 0.8055 0.4009 0.1672 0.8434 0.2137 1.2713 0.1337 0.4279-0.0801 0.822-0.2831 1.1323-0.5834s0.5229-0.6842 0.6107-1.1033c0.0879-0.41904 0.0471-0.85426-0.1171-1.2505-0.1643-0.39625-0.4446-0.73569-0.8055-0.97528-0.3609-0.2396-0.7861-0.36857-1.2217-0.37058h-0.0571c-0.5736 0.00737-1.1212 0.23635-1.5242 0.63737-0.40293 0.40102-0.62886 0.9418-0.62881 1.5052v-4e-3zm-5.4834 7.9022c0 0.3423 0.10339 0.6769 0.29708 0.9616 0.1937 0.2846 0.469 0.5064 0.79107 0.6373s0.67645 0.1651 1.0183 0.0981c0.34184-0.0669 0.65578-0.2319 0.90212-0.4741 0.24633-0.2422 0.41398-0.5508 0.48173-0.8866 0.06776-0.3358 0.03257-0.6838-0.1011-1-0.13367-0.3161-0.35982-0.5863-0.64984-0.7762s-0.63087-0.291-0.97944-0.2906c-0.46694 5e-4 -0.91458 0.1831-1.2446 0.5075-0.32999 0.3245-0.51534 0.7643-0.51534 1.223zm7.1292 5.2674c-0.0028 0.3451 0.0987 0.6833 0.2916 0.9717 0.1929 0.2885 0.4686 0.5142 0.7922 0.6488 0.3236 0.1345 0.6805 0.1717 1.0257 0.107 0.3451-0.0648 0.6629-0.2286 0.9133-0.4708 0.2503-0.2422 0.4218-0.5519 0.4929-0.8899 0.0711-0.3379 0.0385-0.689-0.0937-1.0088-0.1321-0.3198-0.3578-0.5939-0.6486-0.7876-0.2908-0.1938-0.6336-0.2985-0.9849-0.3009h-0.0184c-0.4671-0.0026-0.9162 0.1768-1.2489 0.499-0.3326 0.3221-0.5215 0.7607-0.5252 1.2195l4e-3 0.012zm7.8422 1.4004c-0.0032 0.399 0.1142 0.79 0.3373 1.1234 0.2231 0.3335 0.5419 0.5944 0.9161 0.7499 0.3742 0.1554 0.7869 0.1983 1.1859 0.1233 0.399-0.0751 0.7664-0.2646 1.0556-0.5448 0.2893-0.2802 0.4874-0.6383 0.5694-1.0291 0.0819-0.3909 0.0439-0.7967-0.1091-1.1664-0.153-0.3696-0.4143-0.6863-0.7507-0.91-0.3364-0.2238-0.7328-0.3445-1.139-0.3468h-0.0122c-0.536-0.0081-1.0533 0.193-1.4386 0.559s-0.6071 0.8671-0.6167 1.3935l2e-3 0.048z" fill="#fff"/>
<defs>
<linearGradient id="a" x1="15.001" x2="15.001" y1="34.515" y2="1.494" gradientUnits="userSpaceOnUse">
<stop stop-color="#50E6FF" offset="0"/>
<stop stop-color="#9CEBFF" offset="1"/>
</linearGradient>
</defs>
</svg>
