<?xml version="1.0" encoding="UTF-8"?>
<svg data-slug-id="cognitive-services" viewBox="0 0 48 48" xmlns="http://www.w3.org/2000/svg">
<path d="m47 30.393c-0.0552-2.4545-0.992-4.8071-2.639-6.6277-1.6471-1.8207-3.8943-2.9877-6.331-3.2878-0.1463-3.4257-1.6367-6.6556-4.148-8.99-2.5114-2.3344-5.8415-3.5851-9.2687-3.4812-2.7683-0.06005-5.4874 0.7379-7.7842 2.2844-2.2969 1.5465-4.059 3.7658-5.0447 6.3534-2.9336 0.3565-5.64 1.7602-7.6214 3.9528-1.9814 2.1927-3.1046 5.027-3.163 7.9817 0.12647 3.3127 1.5614 6.4402 3.9903 8.6965 2.4288 2.2564 5.6533 3.4576 8.9664 3.3401h22.106c0.1865 0.0266 0.3758 0.0266 0.5622 0 2.7175-0.0257 5.3186-1.1062 7.2545-3.0134 1.9358-1.9073 3.0549-4.492 3.1211-7.2088z" fill="url(#a)"/>
<path d="m14.851 27.868h-2.2489c-0.1538-0.6667-0.5476-1.2535-1.1063-1.6485-0.5587-0.3949-1.2432-0.5705-1.923-0.4931s-1.3074 0.4023-1.763 0.9128c-0.45563 0.5104-0.70746 1.1707-0.70746 1.8549s0.25183 1.3445 0.70746 1.8549c0.45563 0.5105 1.0832 0.8354 1.763 0.9128s1.3643-0.0981 1.923-0.4931 0.9525-0.9818 1.1063-1.6485h2.2489c0.1356 0 0.2656 0.0539 0.3614 0.1497 0.0959 0.0959 0.1497 0.2259 0.1497 0.3614v10.989h1.2522v-10.989c0-0.4676-0.1857-0.9162-0.5164-1.2468-0.3307-0.3307-0.7792-0.5165-1.2469-0.5165zm-4.9833 2.2489c-0.32348 0-0.6397-0.0959-0.90867-0.2757-0.26896-0.1797-0.4786-0.4351-0.60239-0.734-0.12379-0.2988-0.15618-0.6277-0.09307-0.945 0.06311-0.3172 0.21888-0.6087 0.44762-0.8374 0.22873-0.2287 0.52016-0.3845 0.83743-0.4476 0.31726-0.0631 0.6461-0.0307 0.945 0.0931 0.2988 0.1238 0.5543 0.3334 0.734 0.6024 0.1797 0.2689 0.2756 0.5851 0.2756 0.9086 0 0.4338-0.1723 0.8498-0.479 1.1565-0.3067 0.3068-0.7227 0.4791-1.1565 0.4791z" fill="#9CEBFF"/>
<path d="m23.847 28.423v-2.5556c0-0.4744-0.1885-0.9294-0.524-1.2649s-0.7905-0.524-1.2649-0.524h-3.9611c-0.1356 0-0.2656-0.0538-0.3614-0.1497-0.0959-0.0958-0.1497-0.2258-0.1497-0.3614v-13.57l-0.5878 0.30669-0.6645 0.3578v12.778c0 0.4677 0.1858 0.9162 0.5165 1.2469s0.7792 0.5165 1.2469 0.5165h3.9611c0.0705 0 0.1402 0.0138 0.2054 0.0408 0.0651 0.027 0.1242 0.0665 0.1741 0.1164 0.0498 0.0498 0.0893 0.1089 0.1163 0.1741 0.027 0.0651 0.0408 0.1349 0.0408 0.2053v2.5556c-0.6174 0.1346-1.17 0.477-1.5654 0.97-0.3954 0.4931-0.6096 1.1069-0.6068 1.7389-4e-4 0.5236 0.1467 1.0367 0.4246 1.4805 0.2778 0.4438 0.6751 0.8004 1.1463 1.0287 0.4713 0.2283 0.9973 0.3192 1.5178 0.2622s1.0144-0.2595 1.425-0.5843c0.4107-0.3249 0.7215-0.7589 0.8968-1.2523 0.1752-0.4934 0.2079-1.0263 0.0942-1.5374-0.1138-0.5111-0.3692-0.9798-0.7372-1.3523-0.3679-0.3726-0.8334-0.6339-1.343-0.754v0.1278zm-0.6389 4.3444c-0.3235 0-0.6397-0.0959-0.9087-0.2756s-0.4786-0.4352-0.6024-0.734c-0.1238-0.2989-0.1562-0.6278-0.093-0.945 0.0631-0.3173 0.2188-0.6087 0.4476-0.8375 0.2287-0.2287 0.5201-0.3845 0.8374-0.4476s0.6461-0.0307 0.945 0.0931c0.2988 0.1238 0.5543 0.3334 0.734 0.6024s0.2756 0.5852 0.2756 0.9087c0 0.2147-0.0423 0.4274-0.1245 0.6259-0.0822 0.1984-0.2026 0.3787-0.3545 0.5306-0.1519 0.1518-0.3322 0.2723-0.5306 0.3545-0.1985 0.0822-0.4111 0.1245-0.6259 0.1245z" fill="#F2F2F2"/>
<path d="m38.131 23.035c-0.6813 0.0024-1.3381 0.2545-1.8461 0.7085-0.5081 0.454-0.8321 1.0785-0.9108 1.7553-0.0786 0.6767 0.0934 1.3589 0.4837 1.9174 0.3903 0.5584 0.9717 0.9545 1.6343 1.1132v0.5111c0 0.0705-0.0139 0.1403-0.0408 0.2054-0.027 0.0651-0.0665 0.1243-0.1164 0.1741-0.0498 0.0498-0.109 0.0894-0.1741 0.1163-0.0651 0.027-0.1349 0.0409-0.2054 0.0409h-5.1111v-8.9956c0-0.2315-0.0456-0.4608-0.1342-0.6748-0.0886-0.2139-0.2185-0.4083-0.3822-0.572-0.1638-0.1638-0.3582-0.2937-0.5721-0.3823s-0.4432-0.1342-0.6748-0.1342h-2.6322c-0.1346-0.6175-0.477-1.1701-0.9701-1.5655-0.493-0.3953-1.1068-0.6095-1.7388-0.6067-0.5236-5e-4 -1.0368 0.1467-1.4806 0.4245-0.4438 0.2779-0.8003 0.6752-1.0286 1.1464s-0.3192 0.9972-0.2623 1.5177c0.057 0.5205 0.2596 1.0144 0.5844 1.4251 0.3249 0.4107 0.7589 0.7214 1.2523 0.8967s1.0262 0.2079 1.5373 0.0942 0.9798-0.3692 1.3524-0.7371 0.6339-0.8334 0.754-1.3431h2.7344c0.1356 0 0.2656 0.0539 0.3614 0.1497 0.0959 0.0959 0.1497 0.2259 0.1497 0.3614v20.036h1.2522v-9.7878h5.1112c0.4744 0 0.9294-0.1885 1.2649-0.5239 0.3355-0.3355 0.524-0.7905 0.524-1.265v-0.5111c0.6152-0.1389 1.1652-0.4825 1.5598-0.9746s0.6105-1.1035 0.6124-1.7343c2e-4 -0.3745-0.0751-0.7453-0.2214-1.0901s-0.3607-0.6566-0.6303-0.9166-0.5889-0.4631-0.9387-0.5969-0.7231-0.1957-1.0974-0.1819zm-13.391-1.9678c-0.3235 0-0.6397-0.0959-0.9087-0.2757-0.269-0.1797-0.4786-0.4351-0.6024-0.734-0.1238-0.2988-0.1562-0.6277-0.0931-0.9449 0.0632-0.3173 0.2189-0.6087 0.4477-0.8375 0.2287-0.2287 0.5201-0.3845 0.8374-0.4476s0.6461-0.0307 0.945 0.0931c0.2988 0.1238 0.5543 0.3334 0.734 0.6024 0.1797 0.2689 0.2756 0.5852 0.2756 0.9086 0 0.2148-0.0423 0.4275-0.1245 0.6259-0.0822 0.1985-0.2026 0.3788-0.3545 0.5306-0.1519 0.1519-0.3322 0.2724-0.5306 0.3546-0.1985 0.0822-0.4111 0.1245-0.6259 0.1245zm13.391 6.3889c-0.3245 5e-3 -0.6432-0.0865-0.9155-0.2632-0.2723-0.1766-0.4859-0.4302-0.6137-0.7286-0.1277-0.2983-0.1637-0.628-0.1035-0.9469 0.0601-0.3189 0.2139-0.6127 0.4416-0.844 0.2276-0.2313 0.519-0.3897 0.8369-0.4549 0.318-0.0652 0.6481-0.0343 0.9485 0.0887 0.3003 0.123 0.5573 0.3326 0.7382 0.6021 0.1809 0.2694 0.2775 0.5867 0.2775 0.9112 0 0.4294-0.1688 0.8416-0.47 1.1476s-0.7107 0.4813-1.14 0.488z" fill="#9CEBFF"/>
<defs>
<linearGradient id="a" x1="24" x2="24" y1="50.198" y2=".56958" gradientUnits="userSpaceOnUse">
<stop stop-color="#0078D4" offset="0"/>
<stop stop-color="#1380DA" offset=".16"/>
<stop stop-color="#3C91E5" offset=".53"/>
<stop stop-color="#559CEC" offset=".82"/>
<stop stop-color="#5EA0EF" offset="1"/>
</linearGradient>
</defs>
</svg>
