<svg width="25" height="58" viewBox="0 0 25 58" fill="none" xmlns="http://www.w3.org/2000/svg">
<path d="M0 0L24.5183 0.246415V58L0 57.7536V0Z" fill="white"/>
<path d="M18.7271 52.7636C18.7887 51.9011 18.7579 51.5931 18.6347 51.4699C18.5423 51.3467 18.4807 51.0387 18.4807 50.6383C18.4807 50.053 18.3883 49.8374 17.7107 48.5129C16.9714 47.0961 16.9714 47.0344 17.0946 46.6648C17.2178 46.326 17.187 46.2336 16.9406 45.6176C16.6634 45.0015 16.571 44.8783 15.8625 44.4163C14.5073 43.4922 13.3984 42.5682 11.5811 40.7509C9.54816 38.7487 7.85405 36.531 6.28315 33.8204C5.72872 32.8656 5.69792 32.8348 5.20509 32.8348C4.83546 32.8348 4.40424 32.5267 4.40424 32.2495C4.40424 32.1879 3.97301 31.2023 3.41858 30.0934C2.03249 27.198 1.90928 26.582 2.34051 24.4875C2.58692 23.2554 2.64853 23.1322 3.17216 22.5469C3.7266 21.9309 3.63419 21.7461 2.71013 21.6537C1.47806 21.5305 1.47806 21.5305 1.23164 20.7604C1.10843 20.36 1.01603 19.9288 1.01603 19.7748C1.01603 19.2819 1.57046 17.711 2.34051 16.0477C2.77174 15.1545 3.29537 13.9224 3.54178 13.3064C4.40424 11.181 5.54391 9.45612 6.49877 8.96329C6.86839 8.77848 7.60764 8.62447 9.79457 8.31645C10.9958 8.13164 11.0883 8.03923 11.2731 6.80715C11.3655 6.06791 11.3655 5.9755 11.1807 5.63668C11.0575 5.42107 10.965 5.08225 10.965 4.74343C10.965 4.21979 10.9958 4.15819 11.3039 4.00418C11.5811 3.85017 11.6427 3.78857 11.6427 3.35734C11.6427 2.34088 11.8583 1.75564 12.4127 1.20121C12.5667 1.0472 12.7208 0.893187 12.8132 0.800781H5.32829C2.77174 0.800781 0.708008 2.86451 0.708008 5.42107V52.4864C0.708008 55.0429 2.77174 57.1067 5.32829 57.1067H19.0659C19.0043 57.0143 18.9119 56.8295 18.8195 56.6754C18.4807 56.275 18.4807 56.429 18.7271 52.7636Z" fill="#0E499D"/>
<path d="M19.3436 0.831543H15.3702C15.401 0.893147 15.4626 0.923949 15.5242 0.985553C16.017 1.29357 16.7562 2.09442 16.8795 2.40244C17.0643 2.86447 17.0335 3.51131 16.7562 4.18895C16.6022 4.58938 16.5406 4.9282 16.6022 5.14381C16.6946 5.54424 16.2942 6.34509 15.863 6.77631C15.709 6.93032 15.4626 7.23834 15.3394 7.48476C15.2162 7.73117 14.9389 8.1316 14.6925 8.37801C14.4461 8.62443 14.2613 8.93245 14.2921 9.02485C14.3229 9.11726 14.6001 9.36367 14.9389 9.54848C15.2778 9.7333 15.7706 10.0721 16.0478 10.3185C16.325 10.5649 16.8795 10.9962 17.2799 11.2734C18.7276 12.2899 19.436 14.0456 19.436 16.6945C19.436 17.865 20.0213 20.6064 20.4217 21.4072C20.9761 22.5161 21.1917 23.1321 21.3457 24.241C21.5613 25.6579 21.5921 25.6887 22.0234 25.8735C22.4546 26.0583 23.5635 26.9516 23.5635 27.1364C23.5635 27.198 23.6867 27.3828 23.8099 27.5984L23.9639 27.814V5.45183C23.9639 2.89527 21.9002 0.831543 19.3436 0.831543ZM23.9023 31.7567C23.9023 31.8183 23.6559 32.1263 23.3479 32.4343C21.2841 34.7136 17.7111 34.19 16.4174 31.4486C16.1094 30.771 16.0786 30.617 16.0786 29.6621C16.0786 28.7689 16.1094 28.5533 16.3866 27.9988C16.7871 27.1364 17.5571 26.3355 18.4196 25.9351C18.7892 25.7503 19.128 25.5655 19.1588 25.5039C19.1896 25.4731 18.8508 24.6722 18.3887 23.779C17.3415 21.6844 17.2183 21.3148 16.7562 18.7891C16.5406 17.6494 16.3558 16.6637 16.325 16.6021C16.2326 16.3557 15.9246 16.4481 15.1854 16.9717L14.4461 17.4646L13.7685 19.1587C13.3988 20.0827 13.0908 21.0068 13.0908 21.1608C13.0908 21.3456 13.214 21.5612 13.368 21.746C13.7993 22.1465 13.9225 22.4545 14.6617 25.0418C15.2162 26.9516 15.3394 27.506 15.247 27.6908C15.1545 27.8756 15.2162 28.276 15.4626 29.3233C15.8322 30.8942 15.9554 31.7259 16.1402 33.42C16.325 35.1449 16.5098 35.6685 17.4955 37.4242C18.1423 38.5639 18.3579 39.2723 18.82 41.9521C19.0356 43.1842 19.2512 44.2622 19.3128 44.3546C19.3744 44.4471 19.59 44.7859 19.8056 45.0939C20.3909 45.9563 20.4833 46.3876 20.2677 47.2192C20.1753 47.6197 20.0521 48.1741 20.0213 48.5129C19.9596 49.1597 20.1753 50.7306 20.4525 51.3775C20.5449 51.5931 20.6065 51.8703 20.5757 51.9935C20.5449 52.1167 20.6681 52.6712 20.8529 53.2872C21.4381 55.1353 21.4073 55.9054 20.7297 56.7678C20.6065 56.9218 20.5449 57.0142 20.5141 57.0758C22.5162 56.5522 23.9947 54.7657 23.9947 52.6096V31.7259C23.9331 31.6643 23.9023 31.6951 23.9023 31.7567Z" fill="#D30529"/>
<path d="M2.34082 46.7573H4.21974L5.2978 51.5316H5.32861V46.7573H6.8995V54.4886H5.08219L3.97332 49.7143H3.94252V54.4886H2.34082V46.7573Z" fill="white"/>
<path d="M7.66947 46.7573H10.1952C11.3965 46.7573 11.9509 47.5274 11.9509 48.6978C11.9509 49.5295 11.6429 50.2687 10.9345 50.4227V50.4536C11.7661 50.546 12.1049 51.4084 12.1049 52.2093C12.1049 53.5645 11.5813 54.4886 10.1644 54.4886H7.63867V46.7573H7.66947ZM9.33278 49.7759H9.7332C10.072 49.7759 10.2568 49.4063 10.2568 49.0059C10.2568 48.5746 10.072 48.205 9.7332 48.205H9.33278V49.7759V49.7759ZM9.33278 53.0409H9.79481C10.1028 53.0409 10.38 52.7021 10.38 52.0861C10.38 51.5008 10.1028 51.162 9.79481 51.162H9.33278V53.0409V53.0409Z" fill="white"/>
<path d="M13.799 46.7573H15.8935L17.4644 54.4886H15.6779L15.4931 53.1333H14.1686L13.9838 54.4886H12.1973L13.799 46.7573ZM14.8462 48.3282L14.3842 51.5932H15.3083L14.8462 48.3282Z" fill="white"/>
</svg>
