<svg width="24" height="24" viewBox="0 0 24 24" fill="none" xmlns="http://www.w3.org/2000/svg">
<path d="M11.9999 6.85408C7.27991 6.85408 3.45325 5.52074 3.45325 3.76074V20.2407C3.45325 21.9341 7.21325 23.3074 11.8799 23.3341H11.9999C16.7199 23.3341 20.5466 22.0007 20.5466 20.2407V3.76074C20.5466 5.48074 16.7199 6.85408 11.9999 6.85408Z" fill="url(#paint0_linear_1200_1487)"/>
<path d="M20.5466 3.76033C20.5466 5.48033 16.7199 6.85366 11.9999 6.85366C7.27991 6.85366 3.45325 5.52033 3.45325 3.76033C3.45325 2.00033 7.27991 0.666992 11.9999 0.666992C16.7199 0.666992 20.5466 2.00033 20.5466 3.76033Z" fill="#E8E8E8"/>
<path d="M18.5599 3.50688C18.5599 4.60021 15.6133 5.48021 11.9999 5.48021C8.38661 5.48021 5.43994 4.60021 5.43994 3.50688C5.43994 2.41354 8.38661 1.54688 11.9999 1.54688C15.6133 1.54688 18.5599 2.42688 18.5599 3.50688Z" fill="#50E6FF"/>
<path d="M12 3.99984C10.2404 3.9549 8.48611 4.21196 6.81335 4.75984C8.48769 5.29755 10.2425 5.54116 12 5.47985C13.7611 5.53143 15.5173 5.26958 17.1867 4.70651C15.5092 4.18397 13.7562 3.94513 12 3.99984V3.99984Z" fill="#198AB3"/>
<path d="M17.2 15.1998V10.6664H16V16.1731H19.28V15.1998H17.2ZM7.68001 12.9731C7.43226 12.8735 7.20254 12.7338 7.00001 12.5598C6.94624 12.5029 6.90438 12.4359 6.8769 12.3626C6.84942 12.2893 6.83688 12.2113 6.84001 12.1331C6.83593 12.0548 6.8522 11.9768 6.88726 11.9067C6.92231 11.8366 6.97494 11.7768 7.04001 11.7331C7.20401 11.6196 7.40083 11.5634 7.60001 11.5731C8.0749 11.5518 8.54356 11.6877 8.93335 11.9598V10.8131C8.50736 10.6546 8.05419 10.5821 7.60001 10.5998C7.07691 10.5719 6.56119 10.7328 6.14668 11.0531C5.96601 11.1924 5.82102 11.3726 5.72366 11.5789C5.6263 11.7853 5.57935 12.0118 5.58668 12.2398C5.58668 12.9198 6.01335 13.4531 6.92001 13.8531C7.21449 13.9781 7.49219 14.1393 7.74668 14.3331C7.80902 14.3854 7.8592 14.4507 7.89374 14.5244C7.92828 14.5981 7.94635 14.6784 7.94668 14.7598C7.94672 14.8407 7.92736 14.9205 7.89025 14.9924C7.85313 15.0643 7.79933 15.1263 7.73335 15.1731C7.55189 15.2794 7.34336 15.3303 7.13335 15.3198C6.59706 15.3153 6.08061 15.1164 5.68001 14.7598V15.9998C6.12033 16.2268 6.61157 16.337 7.10668 16.3198C7.66555 16.3529 8.21942 16.198 8.68001 15.8798C8.84269 15.7257 8.96718 15.5358 9.04356 15.3252C9.11995 15.1145 9.14612 14.889 9.12001 14.6664C9.12642 14.3251 9.00788 13.9932 8.78668 13.7331C8.47516 13.405 8.09811 13.146 7.68001 12.9731V12.9731ZM14.6667 15.0931C14.9694 14.586 15.122 14.0035 15.1067 13.4131C15.0766 12.9133 14.9256 12.4283 14.6667 11.9998C14.4585 11.5834 14.1344 11.2361 13.7333 10.9998C13.3269 10.7694 12.8672 10.6499 12.4 10.6531C11.8964 10.642 11.3991 10.7664 10.96 11.0131C10.5484 11.2428 10.2108 11.5851 9.98668 11.9998C9.75064 12.4712 9.63173 12.9926 9.64001 13.5198C9.6428 13.9829 9.7523 14.4392 9.96001 14.8531C10.1635 15.265 10.4834 15.608 10.88 15.8398C11.2827 16.0854 11.7419 16.2231 12.2133 16.2398L13.36 17.5731H14.9733L13.3333 16.1064C13.8856 15.9408 14.3592 15.5808 14.6667 15.0931V15.0931ZM13.3333 14.7598C13.2119 14.9105 13.0573 15.0311 12.8815 15.1121C12.7057 15.193 12.5135 15.2322 12.32 15.2264C12.1251 15.2327 11.9315 15.1925 11.7553 15.109C11.5791 15.0255 11.4253 14.9012 11.3067 14.7464C11.0248 14.3614 10.8879 13.8892 10.92 13.4131C10.8891 12.9371 11.0259 12.4653 11.3067 12.0798C11.4322 11.9251 11.5907 11.8005 11.7707 11.7151C11.9507 11.6297 12.1475 11.5858 12.3467 11.5864C12.5414 11.578 12.7351 11.6188 12.9098 11.7051C13.0846 11.7913 13.2349 11.9202 13.3467 12.0798C13.6094 12.4728 13.7358 12.9412 13.7067 13.4131C13.7532 13.8927 13.6202 14.3726 13.3333 14.7598V14.7598Z" fill="url(#paint1_radial_1200_1487)"/>
<defs>
<linearGradient id="paint0_linear_1200_1487" x1="3.45325" y1="13.5474" x2="20.5466" y2="13.5474" gradientUnits="userSpaceOnUse">
<stop stop-color="#005BA1"/>
<stop offset="0.07" stop-color="#0060A9"/>
<stop offset="0.36" stop-color="#0071C8"/>
<stop offset="0.52" stop-color="#0078D4"/>
<stop offset="0.64" stop-color="#0074CD"/>
<stop offset="0.82" stop-color="#006ABB"/>
<stop offset="1" stop-color="#005BA1"/>
</linearGradient>
<radialGradient id="paint1_radial_1200_1487" cx="0" cy="0" r="1" gradientUnits="userSpaceOnUse" gradientTransform="translate(12.48 14.0931) scale(9.42667 9.42667)">
<stop stop-color="#F2F2F2"/>
<stop offset="0.58" stop-color="#EEEEEE"/>
<stop offset="1" stop-color="#E6E6E6"/>
</radialGradient>
</defs>
</svg>